<?xml version="1.0" encoding="UTF-8"?><svg xmlns="http://www.w3.org/2000/svg" viewBox="0 0 3840 2160"><defs><style>.cls-1{fill:#ff7331;}.cls-2{fill:#09090b;}</style></defs><g id="Layer_1"><rect class="cls-2" width="3840" height="2160"/></g><g id="Dots"><circle class="cls-1" cx="128" cy="128" r="32"/><circle class="cls-1" cx="256" cy="128" r="32"/><circle class="cls-1" cx="384" cy="128" r="32"/><circle class="cls-1" cx="512" cy="128" r="32"/><circle class="cls-1" cx="128" cy="256" r="32"/><circle class="cls-1" cx="256" cy="256" r="32"/><circle class="cls-1" cx="384" cy="256" r="32"/><circle class="cls-1" cx="512" cy="256" r="32"/><circle class="cls-1" cx="128" cy="384" r="32"/><circle class="cls-1" cx="256" cy="384" r="32"/><circle class="cls-1" cx="384" cy="384" r="32"/><circle class="cls-1" cx="512" cy="384" r="32"/><circle class="cls-1" cx="128" cy="512" r="32"/><circle class="cls-1" cx="256" cy="512" r="32"/><circle class="cls-1" cx="384" cy="512" r="32"/><circle class="cls-1" cx="512" cy="512" r="32"/><circle class="cls-1" cx="640" cy="128" r="32"/><circle class="cls-1" cx="768" cy="128" r="32"/><circle class="cls-1" cx="896" cy="128" r="32"/><circle class="cls-1" cx="1024" cy="128" r="32"/><circle class="cls-1" cx="640" cy="256" r="32"/><circle class="cls-1" cx="768" cy="256" r="32"/><circle class="cls-1" cx="896" cy="256" r="32"/><circle class="cls-1" cx="1024" cy="256" r="32"/><circle class="cls-1" cx="640" cy="384" r="32"/><circle class="cls-1" cx="768" cy="384" r="32"/><circle class="cls-1" cx="896" cy="384" r="32"/><circle class="cls-1" cx="1024" cy="384" r="32"/><circle class="cls-1" cx="640" cy="512" r="32"/><circle class="cls-1" cx="768" cy="512" r="32"/><circle class="cls-1" cx="896" cy="512" r="32"/><circle class="cls-1" cx="1024" cy="512" r="32"/><circle class="cls-1" cx="1152" cy="128" r="32"/><circle class="cls-1" cx="1280" cy="128" r="32"/><circle class="cls-1" cx="1408" cy="128" r="32"/><circle class="cls-1" cx="1536" cy="128" r="32"/><circle class="cls-1" cx="1152" cy="256" r="32"/><circle class="cls-1" cx="1280" cy="256" r="32"/><circle class="cls-1" cx="1408" cy="256" r="32"/><circle class="cls-1" cx="1536" cy="256" r="32"/><circle class="cls-1" cx="1152" cy="384" r="32"/><circle class="cls-1" cx="1280" cy="384" r="32"/><circle class="cls-1" cx="1408" cy="384" r="32"/><circle class="cls-1" cx="1536" cy="384" r="32"/><circle class="cls-1" cx="1152" cy="512" r="32"/><circle class="cls-1" cx="1280" cy="512" r="32"/><circle class="cls-1" cx="1408" cy="512" r="32"/><circle class="cls-1" cx="1536" cy="512" r="32"/><circle class="cls-1" cx="1664" cy="128" r="32"/><circle class="cls-1" cx="1792" cy="128" r="32"/><circle class="cls-1" cx="1920" cy="128" r="32"/><circle class="cls-1" cx="2048" cy="128" r="32"/><circle class="cls-1" cx="1664" cy="256" r="32"/><circle class="cls-1" cx="1792" cy="256" r="32"/><circle class="cls-1" cx="1920" cy="256" r="32"/><circle class="cls-1" cx="2048" cy="256" r="32"/><circle class="cls-1" cx="1664" cy="384" r="32"/><circle class="cls-1" cx="1792" cy="384" r="32"/><circle class="cls-1" cx="1920" cy="384" r="32"/><circle class="cls-1" cx="2048" cy="384" r="32"/><circle class="cls-1" cx="1664" cy="512" r="32"/><circle class="cls-1" cx="1792" cy="512" r="32"/><circle class="cls-1" cx="1920" cy="512" r="32"/><circle class="cls-1" cx="2048" cy="512" r="32"/><circle class="cls-1" cx="2176" cy="128" r="32"/><circle class="cls-1" cx="2304" cy="128" r="32"/><circle class="cls-1" cx="2432" cy="128" r="32"/><circle class="cls-1" cx="2560" cy="128" r="32"/><circle class="cls-1" cx="2176" cy="256" r="32"/><circle class="cls-1" cx="2304" cy="256" r="32"/><circle class="cls-1" cx="2432" cy="256" r="32"/><circle class="cls-1" cx="2560" cy="256" r="32"/><circle class="cls-1" cx="2176" cy="384" r="32"/><circle class="cls-1" cx="2304" cy="384" r="32"/><circle class="cls-1" cx="2432" cy="384" r="32"/><circle class="cls-1" cx="2560" cy="384" r="32"/><circle class="cls-1" cx="2176" cy="512" r="32"/><circle class="cls-1" cx="2304" cy="512" r="32"/><circle class="cls-1" cx="2432" cy="512" r="32"/><circle class="cls-1" cx="2560" cy="512" r="32"/><circle class="cls-1" cx="2688" cy="128" r="32"/><circle class="cls-1" cx="2816" cy="128" r="32"/><circle class="cls-1" cx="2944" cy="128" r="32"/><circle class="cls-1" cx="3072" cy="128" r="32"/><circle class="cls-1" cx="2688" cy="256" r="32"/><circle class="cls-1" cx="2816" cy="256" r="32"/><circle class="cls-1" cx="2944" cy="256" r="32"/><circle class="cls-1" cx="3072" cy="256" r="32"/><circle class="cls-1" cx="2688" cy="384" r="32"/><circle class="cls-1" cx="2816" cy="384" r="32"/><circle class="cls-1" cx="2944" cy="384" r="32"/><circle class="cls-1" cx="3072" cy="384" r="32"/><circle class="cls-1" cx="2688" cy="512" r="32"/><circle class="cls-1" cx="2816" cy="512" r="32"/><circle class="cls-1" cx="2944" cy="512" r="32"/><circle class="cls-1" cx="3072" cy="512" r="32"/><circle class="cls-1" cx="3200" cy="128" r="32"/><circle class="cls-1" cx="3328" cy="128" r="32"/><circle class="cls-1" cx="3456" cy="128" r="32"/><circle class="cls-1" cx="3584" cy="128" r="32"/><circle class="cls-1" cx="3200" cy="256" r="32"/><circle class="cls-1" cx="3328" cy="256" r="32"/><circle class="cls-1" cx="3456" cy="256" r="32"/><circle class="cls-1" cx="3584" cy="256" r="32"/><circle class="cls-1" cx="3200" cy="384" r="32"/><circle class="cls-1" cx="3328" cy="384" r="32"/><circle class="cls-1" cx="3456" cy="384" r="32"/><circle class="cls-1" cx="3584" cy="384" r="32"/><circle class="cls-1" cx="3200" cy="512" r="32"/><circle class="cls-1" cx="3328" cy="512" r="32"/><circle class="cls-1" cx="3456" cy="512" r="32"/><circle class="cls-1" cx="3584" cy="512" r="32"/><circle class="cls-1" cx="3712" cy="128" r="32"/><circle class="cls-1" cx="3712" cy="256" r="32"/><circle class="cls-1" cx="3712" cy="384" r="32"/><circle class="cls-1" cx="3712" cy="512" r="32"/><circle class="cls-1" cx="128" cy="640" r="32"/><circle class="cls-1" cx="256" cy="640" r="32"/><circle class="cls-1" cx="384" cy="640" r="32"/><circle class="cls-1" cx="512" cy="640" r="32"/><circle class="cls-1" cx="128" cy="768" r="32"/><circle class="cls-1" cx="256" cy="768" r="32"/><circle class="cls-1" cx="384" cy="768" r="32"/><circle class="cls-1" cx="512" cy="768" r="32"/><circle class="cls-1" cx="128" cy="896" r="32"/><circle class="cls-1" cx="256" cy="896" r="32"/><circle class="cls-1" cx="384" cy="896" r="32"/><circle class="cls-1" cx="512" cy="896" r="32"/><circle class="cls-1" cx="128" cy="1024" r="32"/><circle class="cls-1" cx="256" cy="1024" r="32"/><circle class="cls-1" cx="384" cy="1024" r="32"/><circle class="cls-1" cx="512" cy="1024" r="32"/><circle class="cls-1" cx="640" cy="640" r="32"/><circle class="cls-1" cx="768" cy="640" r="32"/><circle class="cls-1" cx="896" cy="640" r="32"/><circle class="cls-1" cx="1024" cy="640" r="32"/><circle class="cls-1" cx="640" cy="768" r="32"/><circle class="cls-1" cx="768" cy="768" r="32"/><circle class="cls-1" cx="896" cy="768" r="32"/><circle class="cls-1" cx="1024" cy="768" r="32"/><circle class="cls-1" cx="640" cy="896" r="32"/><circle class="cls-1" cx="768" cy="896" r="32"/><circle class="cls-1" cx="896" cy="896" r="32"/><circle class="cls-1" cx="1024" cy="896" r="32"/><circle class="cls-1" cx="640" cy="1024" r="32"/><circle class="cls-1" cx="768" cy="1024" r="32"/><circle class="cls-1" cx="896" cy="1024" r="32"/><circle class="cls-1" cx="1024" cy="1024" r="32"/><circle class="cls-1" cx="1152" cy="640" r="32"/><circle class="cls-1" cx="1280" cy="640" r="32"/><circle class="cls-1" cx="1408" cy="640" r="32"/><circle class="cls-1" cx="1536" cy="640" r="32"/><circle class="cls-1" cx="1152" cy="768" r="32"/><circle class="cls-1" cx="1280" cy="768" r="32"/><circle class="cls-1" cx="1408" cy="768" r="32"/><circle class="cls-1" cx="1536" cy="768" r="32"/><circle class="cls-1" cx="1152" cy="896" r="32"/><circle class="cls-1" cx="1280" cy="896" r="32"/><circle class="cls-1" cx="1408" cy="896" r="32"/><circle class="cls-1" cx="1536" cy="896" r="32"/><circle class="cls-1" cx="1152" cy="1024" r="32"/><circle class="cls-1" cx="1280" cy="1024" r="32"/><circle class="cls-1" cx="1408" cy="1024" r="32"/><circle class="cls-1" cx="1536" cy="1024" r="32"/><circle class="cls-1" cx="1664" cy="640" r="32"/><circle class="cls-1" cx="1792" cy="640" r="32"/><circle class="cls-1" cx="1920" cy="640" r="32"/><circle class="cls-1" cx="2048" cy="640" r="32"/><circle class="cls-1" cx="1664" cy="768" r="32"/><circle class="cls-1" cx="1792" cy="768" r="32"/><circle class="cls-1" cx="1920" cy="768" r="32"/><circle class="cls-1" cx="2048" cy="768" r="32"/><circle class="cls-1" cx="1664" cy="896" r="32"/><circle class="cls-1" cx="1792" cy="896" r="32"/><circle class="cls-1" cx="1920" cy="896" r="32"/><circle class="cls-1" cx="2048" cy="896" r="32"/><circle class="cls-1" cx="1664" cy="1024" r="32"/><circle class="cls-1" cx="1792" cy="1024" r="32"/><circle class="cls-1" cx="1920" cy="1024" r="32"/><circle class="cls-1" cx="2048" cy="1024" r="32"/><circle class="cls-1" cx="2176" cy="640" r="32"/><circle class="cls-1" cx="2304" cy="640" r="32"/><circle class="cls-1" cx="2432" cy="640" r="32"/><circle class="cls-1" cx="2560" cy="640" r="32"/><circle class="cls-1" cx="2176" cy="768" r="32"/><circle class="cls-1" cx="2304" cy="768" r="32"/><circle class="cls-1" cx="2432" cy="768" r="32"/><circle class="cls-1" cx="2560" cy="768" r="32"/><circle class="cls-1" cx="2176" cy="896" r="32"/><circle class="cls-1" cx="2304" cy="896" r="32"/><circle class="cls-1" cx="2432" cy="896" r="32"/><circle class="cls-1" cx="2560" cy="896" r="32"/><circle class="cls-1" cx="2176" cy="1024" r="32"/><circle class="cls-1" cx="2304" cy="1024" r="32"/><circle class="cls-1" cx="2432" cy="1024" r="32"/><circle class="cls-1" cx="2560" cy="1024" r="32"/><circle class="cls-1" cx="2688" cy="640" r="32"/><circle class="cls-1" cx="2816" cy="640" r="32"/><circle class="cls-1" cx="2944" cy="640" r="32"/><circle class="cls-1" cx="3072" cy="640" r="32"/><circle class="cls-1" cx="2688" cy="768" r="32"/><circle class="cls-1" cx="2816" cy="768" r="32"/><circle class="cls-1" cx="2944" cy="768" r="32"/><circle class="cls-1" cx="3072" cy="768" r="32"/><circle class="cls-1" cx="2688" cy="896" r="32"/><circle class="cls-1" cx="2816" cy="896" r="32"/><circle class="cls-1" cx="2944" cy="896" r="32"/><circle class="cls-1" cx="3072" cy="896" r="32"/><circle class="cls-1" cx="2688" cy="1024" r="32"/><circle class="cls-1" cx="2816" cy="1024" r="32"/><circle class="cls-1" cx="2944" cy="1024" r="32"/><circle class="cls-1" cx="3072" cy="1024" r="32"/><circle class="cls-1" cx="3200" cy="640" r="32"/><circle class="cls-1" cx="3328" cy="640" r="32"/><circle class="cls-1" cx="3456" cy="640" r="32"/><circle class="cls-1" cx="3584" cy="640" r="32"/><circle class="cls-1" cx="3200" cy="768" r="32"/><circle class="cls-1" cx="3328" cy="768" r="32"/><circle class="cls-1" cx="3456" cy="768" r="32"/><circle class="cls-1" cx="3584" cy="768" r="32"/><circle class="cls-1" cx="3200" cy="896" r="32"/><circle class="cls-1" cx="3328" cy="896" r="32"/><circle class="cls-1" cx="3456" cy="896" r="32"/><circle class="cls-1" cx="3584" cy="896" r="32"/><circle class="cls-1" cx="3200" cy="1024" r="32"/><circle class="cls-1" cx="3328" cy="1024" r="32"/><circle class="cls-1" cx="3456" cy="1024" r="32"/><circle class="cls-1" cx="3584" cy="1024" r="32"/><circle class="cls-1" cx="3712" cy="640" r="32"/><circle class="cls-1" cx="3712" cy="768" r="32"/><circle class="cls-1" cx="3712" cy="896" r="32"/><circle class="cls-1" cx="3712" cy="1024" r="32"/><circle class="cls-1" cx="128" cy="1152" r="32"/><circle class="cls-1" cx="256" cy="1152" r="32"/><circle class="cls-1" cx="384" cy="1152" r="32"/><circle class="cls-1" cx="512" cy="1152" r="32"/><circle class="cls-1" cx="128" cy="1280" r="32"/><circle class="cls-1" cx="256" cy="1280" r="32"/><circle class="cls-1" cx="384" cy="1280" r="32"/><circle class="cls-1" cx="512" cy="1280" r="32"/><circle class="cls-1" cx="128" cy="1408" r="32"/><circle class="cls-1" cx="256" cy="1408" r="32"/><circle class="cls-1" cx="384" cy="1408" r="32"/><circle class="cls-1" cx="512" cy="1408" r="32"/><circle class="cls-1" cx="128" cy="1536" r="32"/><circle class="cls-1" cx="256" cy="1536" r="32"/><circle class="cls-1" cx="384" cy="1536" r="32"/><circle class="cls-1" cx="512" cy="1536" r="32"/><circle class="cls-1" cx="640" cy="1152" r="32"/><circle class="cls-1" cx="768" cy="1152" r="32"/><circle class="cls-1" cx="896" cy="1152" r="32"/><circle class="cls-1" cx="1024" cy="1152" r="32"/><circle class="cls-1" cx="640" cy="1280" r="32"/><circle class="cls-1" cx="768" cy="1280" r="32"/><circle class="cls-1" cx="896" cy="1280" r="32"/><circle class="cls-1" cx="1024" cy="1280" r="32"/><circle class="cls-1" cx="640" cy="1408" r="32"/><circle class="cls-1" cx="768" cy="1408" r="32"/><circle class="cls-1" cx="896" cy="1408" r="32"/><circle class="cls-1" cx="1024" cy="1408" r="32"/><circle class="cls-1" cx="640" cy="1536" r="32"/><circle class="cls-1" cx="768" cy="1536" r="32"/><circle class="cls-1" cx="896" cy="1536" r="32"/><circle class="cls-1" cx="1024" cy="1536" r="32"/><circle class="cls-1" cx="1152" cy="1152" r="32"/><circle class="cls-1" cx="1280" cy="1152" r="32"/><circle class="cls-1" cx="1408" cy="1152" r="32"/><circle class="cls-1" cx="1536" cy="1152" r="32"/><circle class="cls-1" cx="1152" cy="1280" r="32"/><circle class="cls-1" cx="1280" cy="1280" r="32"/><circle class="cls-1" cx="1408" cy="1280" r="32"/><circle class="cls-1" cx="1536" cy="1280" r="32"/><circle class="cls-1" cx="1152" cy="1408" r="32"/><circle class="cls-1" cx="1280" cy="1408" r="32"/><circle class="cls-1" cx="1408" cy="1408" r="32"/><circle class="cls-1" cx="1536" cy="1408" r="32"/><circle class="cls-1" cx="1152" cy="1536" r="32"/><circle class="cls-1" cx="1280" cy="1536" r="32"/><circle class="cls-1" cx="1408" cy="1536" r="32"/><circle class="cls-1" cx="1536" cy="1536" r="32"/><circle class="cls-1" cx="1664" cy="1152" r="32"/><circle class="cls-1" cx="1792" cy="1152" r="32"/><circle class="cls-1" cx="1920" cy="1152" r="32"/><circle class="cls-1" cx="2048" cy="1152" r="32"/><circle class="cls-1" cx="1664" cy="1280" r="32"/><circle class="cls-1" cx="1792" cy="1280" r="32"/><circle class="cls-1" cx="1920" cy="1280" r="32"/><circle class="cls-1" cx="2048" cy="1280" r="32"/><circle class="cls-1" cx="1664" cy="1408" r="32"/><circle class="cls-1" cx="1792" cy="1408" r="32"/><circle class="cls-1" cx="1920" cy="1408" r="32"/><circle class="cls-1" cx="2048" cy="1408" r="32"/><circle class="cls-1" cx="1664" cy="1536" r="32"/><circle class="cls-1" cx="1792" cy="1536" r="32"/><circle class="cls-1" cx="1920" cy="1536" r="32"/><circle class="cls-1" cx="2048" cy="1536" r="32"/><circle class="cls-1" cx="2176" cy="1152" r="32"/><circle class="cls-1" cx="2304" cy="1152" r="32"/><circle class="cls-1" cx="2432" cy="1152" r="32"/><circle class="cls-1" cx="2560" cy="1152" r="32"/><circle class="cls-1" cx="2176" cy="1280" r="32"/><circle class="cls-1" cx="2304" cy="1280" r="32"/><circle class="cls-1" cx="2432" cy="1280" r="32"/><circle class="cls-1" cx="2560" cy="1280" r="32"/><circle class="cls-1" cx="2176" cy="1408" r="32"/><circle class="cls-1" cx="2304" cy="1408" r="32"/><circle class="cls-1" cx="2432" cy="1408" r="32"/><circle class="cls-1" cx="2560" cy="1408" r="32"/><circle class="cls-1" cx="2176" cy="1536" r="32"/><circle class="cls-1" cx="2304" cy="1536" r="32"/><circle class="cls-1" cx="2432" cy="1536" r="32"/><circle class="cls-1" cx="2560" cy="1536" r="32"/><circle class="cls-1" cx="2688" cy="1152" r="32"/><circle class="cls-1" cx="2816" cy="1152" r="32"/><circle class="cls-1" cx="2944" cy="1152" r="32"/><circle class="cls-1" cx="3072" cy="1152" r="32"/><circle class="cls-1" cx="2688" cy="1280" r="32"/><circle class="cls-1" cx="2816" cy="1280" r="32"/><circle class="cls-1" cx="2944" cy="1280" r="32"/><circle class="cls-1" cx="3072" cy="1280" r="32"/><circle class="cls-1" cx="2688" cy="1408" r="32"/><circle class="cls-1" cx="2816" cy="1408" r="32"/><circle class="cls-1" cx="2944" cy="1408" r="32"/><circle class="cls-1" cx="3072" cy="1408" r="32"/><circle class="cls-1" cx="2688" cy="1536" r="32"/><circle class="cls-1" cx="2816" cy="1536" r="32"/><circle class="cls-1" cx="2944" cy="1536" r="32"/><circle class="cls-1" cx="3072" cy="1536" r="32"/><circle class="cls-1" cx="3200" cy="1152" r="32"/><circle class="cls-1" cx="3328" cy="1152" r="32"/><circle class="cls-1" cx="3456" cy="1152" r="32"/><circle class="cls-1" cx="3584" cy="1152" r="32"/><circle class="cls-1" cx="3200" cy="1280" r="32"/><circle class="cls-1" cx="3328" cy="1280" r="32"/><circle class="cls-1" cx="3456" cy="1280" r="32"/><circle class="cls-1" cx="3584" cy="1280" r="32"/><circle class="cls-1" cx="3200" cy="1408" r="32"/><circle class="cls-1" cx="3328" cy="1408" r="32"/><circle class="cls-1" cx="3456" cy="1408" r="32"/><circle class="cls-1" cx="3584" cy="1408" r="32"/><circle class="cls-1" cx="3200" cy="1536" r="32"/><circle class="cls-1" cx="3328" cy="1536" r="32"/><circle class="cls-1" cx="3456" cy="1536" r="32"/><circle class="cls-1" cx="3584" cy="1536" r="32"/><circle class="cls-1" cx="3712" cy="1152" r="32"/><circle class="cls-1" cx="3712" cy="1280" r="32"/><circle class="cls-1" cx="3712" cy="1408" r="32"/><circle class="cls-1" cx="3712" cy="1536" r="32"/><circle class="cls-1" cx="128" cy="1664" r="32"/><circle class="cls-1" cx="256" cy="1664" r="32"/><circle class="cls-1" cx="384" cy="1664" r="32"/><circle class="cls-1" cx="512" cy="1664" r="32"/><circle class="cls-1" cx="128" cy="1792" r="32"/><circle class="cls-1" cx="256" cy="1792" r="32"/><circle class="cls-1" cx="384" cy="1792" r="32"/><circle class="cls-1" cx="512" cy="1792" r="32"/><circle class="cls-1" cx="128" cy="1920" r="32"/><circle class="cls-1" cx="256" cy="1920" r="32"/><circle class="cls-1" cx="384" cy="1920" r="32"/><circle class="cls-1" cx="512" cy="1920" r="32"/><circle class="cls-1" cx="128" cy="2048" r="32"/><circle class="cls-1" cx="256" cy="2048" r="32"/><circle class="cls-1" cx="384" cy="2048" r="32"/><circle class="cls-1" cx="512" cy="2048" r="32"/><circle class="cls-1" cx="640" cy="1664" r="32"/><circle class="cls-1" cx="768" cy="1664" r="32"/><circle class="cls-1" cx="896" cy="1664" r="32"/><circle class="cls-1" cx="1024" cy="1664" r="32"/><circle class="cls-1" cx="640" cy="1792" r="32"/><circle class="cls-1" cx="768" cy="1792" r="32"/><circle class="cls-1" cx="896" cy="1792" r="32"/><circle class="cls-1" cx="1024" cy="1792" r="32"/><circle class="cls-1" cx="640" cy="1920" r="32"/><circle class="cls-1" cx="768" cy="1920" r="32"/><circle class="cls-1" cx="896" cy="1920" r="32"/><circle class="cls-1" cx="1024" cy="1920" r="32"/><circle class="cls-1" cx="640" cy="2048" r="32"/><circle class="cls-1" cx="768" cy="2048" r="32"/><circle class="cls-1" cx="896" cy="2048" r="32"/><circle class="cls-1" cx="1024" cy="2048" r="32"/><circle class="cls-1" cx="1152" cy="1664" r="32"/><circle class="cls-1" cx="1280" cy="1664" r="32"/><circle class="cls-1" cx="1408" cy="1664" r="32"/><circle class="cls-1" cx="1536" cy="1664" r="32"/><circle class="cls-1" cx="1152" cy="1792" r="32"/><circle class="cls-1" cx="1280" cy="1792" r="32"/><circle class="cls-1" cx="1408" cy="1792" r="32"/><circle class="cls-1" cx="1536" cy="1792" r="32"/><circle class="cls-1" cx="1152" cy="1920" r="32"/><circle class="cls-1" cx="1280" cy="1920" r="32"/><circle class="cls-1" cx="1408" cy="1920" r="32"/><circle class="cls-1" cx="1536" cy="1920" r="32"/><circle class="cls-1" cx="1152" cy="2048" r="32"/><circle class="cls-1" cx="1280" cy="2048" r="32"/><circle class="cls-1" cx="1408" cy="2048" r="32"/><circle class="cls-1" cx="1536" cy="2048" r="32"/><circle class="cls-1" cx="1664" cy="1664" r="32"/><circle class="cls-1" cx="1792" cy="1664" r="32"/><circle class="cls-1" cx="1920" cy="1664" r="32"/><circle class="cls-1" cx="2048" cy="1664" r="32"/><circle class="cls-1" cx="1664" cy="1792" r="32"/><circle class="cls-1" cx="1792" cy="1792" r="32"/><circle class="cls-1" cx="1920" cy="1792" r="32"/><circle class="cls-1" cx="2048" cy="1792" r="32"/><circle class="cls-1" cx="1664" cy="1920" r="32"/><circle class="cls-1" cx="1792" cy="1920" r="32"/><circle class="cls-1" cx="1920" cy="1920" r="32"/><circle class="cls-1" cx="2048" cy="1920" r="32"/><circle class="cls-1" cx="1664" cy="2048" r="32"/><circle class="cls-1" cx="1792" cy="2048" r="32"/><circle class="cls-1" cx="1920" cy="2048" r="32"/><circle class="cls-1" cx="2048" cy="2048" r="32"/><circle class="cls-1" cx="2176" cy="1664" r="32"/><circle class="cls-1" cx="2304" cy="1664" r="32"/><circle class="cls-1" cx="2432" cy="1664" r="32"/><circle class="cls-1" cx="2560" cy="1664" r="32"/><circle class="cls-1" cx="2176" cy="1792" r="32"/><circle class="cls-1" cx="2304" cy="1792" r="32"/><circle class="cls-1" cx="2432" cy="1792" r="32"/><circle class="cls-1" cx="2560" cy="1792" r="32"/><circle class="cls-1" cx="2176" cy="1920" r="32"/><circle class="cls-1" cx="2304" cy="1920" r="32"/><circle class="cls-1" cx="2432" cy="1920" r="32"/><circle class="cls-1" cx="2560" cy="1920" r="32"/><circle class="cls-1" cx="2176" cy="2048" r="32"/><circle class="cls-1" cx="2304" cy="2048" r="32"/><circle class="cls-1" cx="2432" cy="2048" r="32"/><circle class="cls-1" cx="2560" cy="2048" r="32"/><circle class="cls-1" cx="2688" cy="1664" r="32"/><circle class="cls-1" cx="2816" cy="1664" r="32"/><circle class="cls-1" cx="2944" cy="1664" r="32"/><circle class="cls-1" cx="3072" cy="1664" r="32"/><circle class="cls-1" cx="2688" cy="1792" r="32"/><circle class="cls-1" cx="2816" cy="1792" r="32"/><circle class="cls-1" cx="2944" cy="1792" r="32"/><circle class="cls-1" cx="3072" cy="1792" r="32"/><circle class="cls-1" cx="2688" cy="1920" r="32"/><circle class="cls-1" cx="2816" cy="1920" r="32"/><circle class="cls-1" cx="2944" cy="1920" r="32"/><circle class="cls-1" cx="3072" cy="1920" r="32"/><circle class="cls-1" cx="2688" cy="2048" r="32"/><circle class="cls-1" cx="2816" cy="2048" r="32"/><circle class="cls-1" cx="2944" cy="2048" r="32"/><circle class="cls-1" cx="3072" cy="2048" r="32"/><circle class="cls-1" cx="3200" cy="1664" r="32"/><circle class="cls-1" cx="3328" cy="1664" r="32"/><circle class="cls-1" cx="3456" cy="1664" r="32"/><circle class="cls-1" cx="3584" cy="1664" r="32"/><circle class="cls-1" cx="3200" cy="1792" r="32"/><circle class="cls-1" cx="3328" cy="1792" r="32"/><circle class="cls-1" cx="3456" cy="1792" r="32"/><circle class="cls-1" cx="3584" cy="1792" r="32"/><circle class="cls-1" cx="3200" cy="1920" r="32"/><circle class="cls-1" cx="3328" cy="1920" r="32"/><circle class="cls-1" cx="3456" cy="1920" r="32"/><circle class="cls-1" cx="3584" cy="1920" r="32"/><circle class="cls-1" cx="3200" cy="2048" r="32"/><circle class="cls-1" cx="3328" cy="2048" r="32"/><circle class="cls-1" cx="3456" cy="2048" r="32"/><circle class="cls-1" cx="3584" cy="2048" r="32"/><circle class="cls-1" cx="3712" cy="1664" r="32"/><circle class="cls-1" cx="3712" cy="1792" r="32"/><circle class="cls-1" cx="3712" cy="1920" r="32"/><circle class="cls-1" cx="3712" cy="2048" r="32"/></g></svg>